# xmcd
#
# Track frame offsets: 
#        150
#        14244
#        30494
#        47311
#        69109
#        87623
#        105827
#        125133
#        142267
#        159390
#        176857
#        192328
#        211616
#        227903
#        247677
#        265043
#        285384
#        302686
#        321862
#        342694
#
# Disc length: 4799 seconds
#
# Revision: 0
# Processed by: cddbd v1.5.2PL0 Copyright (c) Steve Scherf et al.
# Submitted via: ExactAudioCopy v1.1
#
DISCID=1a12bd14
DTITLE=中条きよし - GOLDEN☆BEST 中条きよし RCAイヤーズ MHCL-30152
DYEAR=1900
DGENRE=Blues
TTITLE0=うそ (1987 Version)
TTITLE1=うすなさけ (1987 Version)
TTITLE2=理由 (1987 Version)
TTITLE3=櫻の花のように
TTITLE4=大阪おんな
TTITLE5=オロロン酒場
TTITLE6=行きずり
TTITLE7=冬の蝉
TTITLE8=男ごころ・女ごころ
TTITLE9=朝のくちべに
TTITLE10=ウィスキー
TTITLE11=うしろ影
TTITLE12=恋ゆずり
TTITLE13=いのちの詩
TTITLE14=色が舞う
TTITLE15=北の螢
TTITLE16=大田ブルース
TTITLE17=もしかしてPARTII
TTITLE18=長良川艶歌
TTITLE19=つぐない
EXTD=
EXTT0=
EXTT1=
EXTT2=
EXTT3=
EXTT4=
EXTT5=
EXTT6=
EXTT7=
EXTT8=
EXTT9=
EXTT10=
EXTT11=
EXTT12=
EXTT13=
EXTT14=
EXTT15=
EXTT16=
EXTT17=
EXTT18=
EXTT19=
PLAYORDER=
